<svg width="21" height="16" viewBox="0 0 21 16" fill="none" xmlns="http://www.w3.org/2000/svg">
<ellipse cx="7" cy="7.5" rx="7" ry="7.5" fill="#EBF5FE"/>
<path d="M17.7627 5.89167H16.6924L17.0149 2.407C17.0155 2.40069 17.0156 2.39447 17.0156 2.38825C17.0156 2.38772 17.0157 2.38722 17.0157 2.38669C17.0157 2.38659 17.0157 2.38653 17.0157 2.38644C17.0157 2.29159 16.9549 2.208 16.8655 2.17166C16.8648 2.17134 16.864 2.17097 16.8633 2.17066C16.8577 2.16847 16.852 2.16659 16.8462 2.16478C16.844 2.16413 16.842 2.16331 16.8398 2.16269C16.8351 2.16134 16.8303 2.16028 16.8255 2.15919C16.8221 2.15844 16.8188 2.15753 16.8154 2.15691C16.8112 2.15613 16.8068 2.15563 16.8025 2.15503C16.7984 2.15447 16.7944 2.15381 16.7904 2.15347C16.7897 2.15341 16.789 2.15328 16.7883 2.15322C16.784 2.15284 16.7796 2.15291 16.7753 2.15275C16.7724 2.15266 16.7695 2.15234 16.7666 2.15234H16.7635C16.7632 2.15234 16.7629 2.15234 16.7627 2.15234H11.6703C11.5328 2.15234 11.4213 2.25734 11.4213 2.38672C11.4213 2.51578 11.5328 2.6211 11.6703 2.6211H16.4951L15.9996 7.97659C15.9995 7.97699 15.9995 7.9774 15.9994 7.9778L15.8744 9.32909H7.22131L7.36605 7.9229H9.01363C9.15119 7.9229 9.26265 7.81796 9.26265 7.68852C9.26265 7.55908 9.15119 7.45415 9.01363 7.45415H7.41432L7.71993 4.48554H10.3422C10.4797 4.48554 10.5912 4.3806 10.5912 4.25116C10.5912 4.12173 10.4797 4.01679 10.3422 4.01679H7.7682L7.91191 2.6211H10.6742C10.8113 2.6211 10.9232 2.51578 10.9232 2.38672C10.9232 2.25734 10.8113 2.15234 10.6742 2.15234H7.68589C7.68576 2.15234 7.68566 2.15237 7.68553 2.15237C7.56855 2.15234 7.46708 2.22984 7.44255 2.33728C7.44238 2.33806 7.44208 2.33881 7.44192 2.33959C7.44065 2.34544 7.43982 2.35141 7.43899 2.35741C7.43876 2.35931 7.43833 2.36113 7.43813 2.36303C7.4381 2.36341 7.438 2.36375 7.43796 2.36413L7.26783 4.01679H4.24902C4.11146 4.01679 4 4.12173 4 4.25116C4 4.3806 4.11146 4.48554 4.24902 4.48554H7.21955L6.91395 7.45415H6.02547C5.8879 7.45415 5.77644 7.55908 5.77644 7.68852C5.77644 7.81796 5.8879 7.9229 6.02547 7.9229H6.86571L6.69929 9.53919C6.69926 9.53943 6.69926 9.53969 6.69923 9.5399L6.44193 12.0393C6.4419 12.0395 6.44187 12.0399 6.44183 12.0401L6.44173 12.041C6.4414 12.0443 6.44144 12.0474 6.44124 12.0507C6.441 12.055 6.44054 12.0592 6.44054 12.0636C6.44054 12.0638 6.44057 12.064 6.44057 12.0642C6.44057 12.0702 6.44104 12.0762 6.4415 12.0821C6.4417 12.084 6.44163 12.0859 6.44187 12.0878C6.44253 12.0939 6.44363 12.0999 6.44479 12.1058C6.44512 12.1075 6.44529 12.1093 6.44565 12.111C6.44661 12.1155 6.44798 12.1199 6.44924 12.1243C6.4501 12.1274 6.4508 12.1305 6.45179 12.1336C6.45209 12.1344 6.45249 12.1352 6.45276 12.1361C6.46481 12.171 6.48526 12.2023 6.51196 12.2279C6.51246 12.2283 6.51286 12.2289 6.51335 12.2293C6.51601 12.2318 6.5189 12.234 6.52169 12.2364C6.53885 12.2512 6.55824 12.2638 6.57946 12.2736C6.58388 12.2757 6.58823 12.2779 6.59274 12.2796C6.5941 12.2802 6.59556 12.2806 6.59696 12.2811C6.6032 12.2834 6.60948 12.2857 6.61595 12.2876C6.61655 12.2877 6.61711 12.2878 6.61771 12.288C6.62508 12.2901 6.63252 12.2919 6.64012 12.2934C6.64112 12.2935 6.64215 12.2936 6.64311 12.2938C6.65035 12.2951 6.65762 12.2962 6.66503 12.2969C6.66519 12.2969 6.66532 12.2969 6.66549 12.2969C6.67366 12.2977 6.68176 12.298 6.6898 12.298C6.6899 12.298 6.69003 12.298 6.69016 12.298H7.79875C7.92117 13.1715 8.71689 13.8481 9.67796 13.8481C10.639 13.8481 11.4347 13.1715 11.5571 12.298H15.5514C15.6739 13.1715 16.4695 13.8481 17.4306 13.8481C18.3916 13.8481 19.1874 13.1715 19.3098 12.298H20.4187C20.4188 12.298 20.419 12.298 20.4192 12.298C20.4275 12.298 20.4357 12.2976 20.4438 12.2968C20.4452 12.2967 20.4466 12.2964 20.4481 12.2963C20.4546 12.2955 20.461 12.2947 20.4673 12.2935C20.47 12.293 20.4727 12.2923 20.4754 12.2917C20.4802 12.2907 20.4851 12.2895 20.4899 12.2882C20.4932 12.2873 20.4963 12.2862 20.4995 12.2852C20.5036 12.2839 20.5077 12.2825 20.5117 12.281C20.5152 12.2797 20.5185 12.2783 20.5218 12.2769C20.5255 12.2753 20.5291 12.2737 20.5327 12.2719C20.5361 12.2703 20.5393 12.2686 20.5426 12.2669C20.546 12.265 20.5494 12.2631 20.5527 12.2611C20.5558 12.2592 20.559 12.2573 20.5619 12.2553C20.5653 12.2531 20.5686 12.2507 20.5718 12.2484C20.5746 12.2463 20.5773 12.2443 20.58 12.2422C20.5834 12.2395 20.5866 12.2366 20.5899 12.2337C20.5921 12.2317 20.5945 12.2297 20.5967 12.2276C20.6001 12.2243 20.6034 12.2208 20.6067 12.2172C20.6085 12.2153 20.6103 12.2135 20.612 12.2115C20.6156 12.2073 20.619 12.2029 20.6223 12.1985C20.6234 12.197 20.6247 12.1955 20.6258 12.194C20.6298 12.1883 20.6336 12.1824 20.6372 12.1763C20.6374 12.1759 20.6377 12.1756 20.6379 12.1752C20.6416 12.1687 20.6451 12.162 20.6481 12.1552C20.649 12.1532 20.6497 12.1512 20.6505 12.1492C20.6525 12.1444 20.6545 12.1395 20.6562 12.1345C20.6573 12.1312 20.6581 12.1279 20.6591 12.1246C20.6602 12.1207 20.6613 12.1168 20.6623 12.1129C20.6631 12.1093 20.6636 12.1057 20.6642 12.1021C20.6648 12.0989 20.6655 12.0959 20.666 12.0926C20.6765 12.013 20.8715 10.5405 20.9586 9.5884C20.9587 9.5875 20.9588 9.58656 20.9589 9.58565C20.9839 9.31118 21 9.08006 21 8.93856C21 7.25852 19.5478 5.89167 17.7627 5.89167ZM16.649 6.36049H17.6678L17.5377 7.76662H16.5189L16.649 6.36049ZM9.67802 13.3793C8.90714 13.3793 8.28 12.7891 8.28 12.0636C8.28 11.3381 8.90718 10.7478 9.67802 10.7478C10.4489 10.7478 11.076 11.3381 11.076 12.0636C11.076 12.7891 10.4489 13.3793 9.67802 13.3793ZM17.4306 13.3793C16.6597 13.3793 16.0326 12.7891 16.0326 12.0636C16.0326 11.3381 16.6598 10.7478 17.4306 10.7478C18.2015 10.7478 18.8286 11.3381 18.8286 12.0636C18.8286 12.7891 18.2015 13.3793 17.4306 13.3793ZM20.1986 11.8291H19.3099C19.1875 10.9555 18.3918 10.2789 17.4306 10.2789C16.4696 10.2789 15.6739 10.9555 15.5515 11.8291H11.5572C11.4348 10.9555 10.6391 10.2789 9.67802 10.2789C8.71695 10.2789 7.92117 10.9555 7.79878 11.8291H6.96392L7.17307 9.79772H16.1026V9.79784C16.1027 9.79784 16.1028 9.79784 16.103 9.79784C16.1113 9.79784 16.1196 9.7974 16.1277 9.79662C16.1292 9.7965 16.1307 9.79619 16.1323 9.796C16.1388 9.79528 16.1453 9.7944 16.1516 9.79322C16.1544 9.79269 16.1571 9.79197 16.1598 9.79134C16.1648 9.79022 16.1698 9.78912 16.1746 9.78775C16.1779 9.78681 16.1811 9.78569 16.1843 9.78462C16.1885 9.78325 16.1927 9.78191 16.1967 9.78034C16.2002 9.779 16.2036 9.7775 16.2069 9.776C16.2106 9.77441 16.2143 9.77281 16.2179 9.77106C16.2213 9.76937 16.2246 9.76756 16.2279 9.76575C16.2313 9.76387 16.2347 9.76197 16.2381 9.75997C16.2413 9.758 16.2443 9.75594 16.2474 9.75387C16.2507 9.75169 16.2539 9.74944 16.2571 9.74709C16.2599 9.74494 16.2628 9.74272 16.2655 9.74044C16.2687 9.73787 16.2718 9.73525 16.2748 9.73253C16.2773 9.73025 16.2798 9.7279 16.2823 9.7255C16.2853 9.72256 16.2882 9.71953 16.291 9.71644C16.2932 9.714 16.2954 9.71156 16.2976 9.70906C16.3003 9.70578 16.3029 9.7024 16.3055 9.699C16.3075 9.69644 16.3094 9.69387 16.3112 9.69125C16.3137 9.68772 16.316 9.68409 16.3182 9.6804C16.3199 9.67765 16.3216 9.6749 16.3232 9.67209C16.3252 9.6684 16.327 9.66465 16.3289 9.66087C16.3304 9.65784 16.3319 9.65487 16.3332 9.65175C16.3348 9.64806 16.3362 9.64428 16.3376 9.6405C16.3389 9.63715 16.3402 9.63381 16.3413 9.63037C16.3423 9.62675 16.3432 9.62303 16.3442 9.61934C16.3452 9.61562 16.3463 9.61194 16.347 9.60815C16.3478 9.60447 16.3483 9.60072 16.3489 9.59697C16.3495 9.59309 16.3501 9.58928 16.3505 9.58534C16.3506 9.58478 16.3507 9.58425 16.3508 9.58369L16.4756 8.23524H17.7626C18.5256 8.23524 18.8697 8.60731 19.234 9.00125C19.5346 9.32628 19.8702 9.68894 20.4406 9.77741C20.3681 10.4983 20.251 11.4238 20.1986 11.8291ZM20.4832 9.30772C20.1131 9.23672 19.8854 8.99187 19.6096 8.69362C19.2647 8.32065 18.8435 7.86549 18.0363 7.78068L18.1651 6.38855C19.4854 6.57233 20.502 7.64571 20.502 8.93862C20.502 9.02646 20.495 9.15409 20.4832 9.30772Z" fill="#223D69"/>
<path d="M9.67823 11.2041C9.17477 11.2041 8.76514 11.5896 8.76514 12.0635C8.76514 12.5374 9.17477 12.9229 9.67823 12.9229C10.1817 12.9229 10.5913 12.5374 10.5913 12.0635C10.5913 11.5896 10.1817 11.2041 9.67823 11.2041ZM9.67823 12.4541C9.44936 12.4541 9.26319 12.2789 9.26319 12.0635C9.26319 11.8481 9.44936 11.6729 9.67823 11.6729C9.9071 11.6729 10.0933 11.8481 10.0933 12.0635C10.0933 12.2789 9.90706 12.4541 9.67823 12.4541Z" fill="#223D69"/>
<path d="M17.4307 11.2041C16.9272 11.2041 16.5176 11.5896 16.5176 12.0635C16.5176 12.5374 16.9272 12.9229 17.4307 12.9229C17.9341 12.9229 18.3438 12.5374 18.3438 12.0635C18.3438 11.5896 17.9341 11.2041 17.4307 11.2041ZM17.4307 12.4541C17.2018 12.4541 17.0156 12.2789 17.0156 12.0635C17.0156 11.8481 17.2018 11.6729 17.4307 11.6729C17.6595 11.6729 17.8457 11.8481 17.8457 12.0635C17.8457 12.2789 17.6595 12.4541 17.4307 12.4541Z" fill="#223D69"/>
<path d="M6.35757 5.8916H5.14014C5.00258 5.8916 4.89111 5.99654 4.89111 6.12598C4.89111 6.25542 5.00258 6.36035 5.14014 6.36035H6.35757C6.49513 6.36035 6.60659 6.25542 6.60659 6.12598C6.60659 5.99654 6.49513 5.8916 6.35757 5.8916Z" fill="#223D69"/>
</svg>
