<svg width="60" height="60" viewBox="0 0 60 60" fill="none" xmlns="http://www.w3.org/2000/svg">
<path d="M48.5742 22.0928H44.7967L45.9349 9.02534C45.937 9.00167 45.9373 8.97835 45.9374 8.95503C45.9374 8.95303 45.9377 8.95116 45.9377 8.94917C45.9377 8.94881 45.9377 8.94858 45.9377 8.94823C45.9377 8.59256 45.7231 8.27909 45.4078 8.1428C45.4051 8.14162 45.4025 8.14022 45.3998 8.13905C45.3802 8.13084 45.3599 8.12381 45.3396 8.11701C45.3319 8.11455 45.3247 8.11151 45.3171 8.10916C45.3004 8.10412 45.2833 8.10014 45.2663 8.09604C45.2544 8.09323 45.2429 8.08983 45.2308 8.08748C45.2159 8.08455 45.2005 8.08268 45.1852 8.08045C45.1709 8.07834 45.1569 8.07588 45.1424 8.07459C45.14 8.07436 45.1378 8.07389 45.1353 8.07365C45.1198 8.07225 45.1046 8.07248 45.0892 8.0719C45.0789 8.07155 45.0688 8.07037 45.0585 8.07037H45.0475C45.0466 8.07037 45.0456 8.07037 45.0448 8.07037H27.0716C26.5864 8.07037 26.1927 8.46413 26.1927 8.94928C26.1927 9.43327 26.5864 9.82819 27.0716 9.82819H44.1005L42.3514 29.9113C42.3511 29.9128 42.3511 29.9143 42.3509 29.9158L41.9096 34.9832H11.3693L11.8802 29.71H17.6951C18.1807 29.71 18.5741 29.3164 18.5741 28.831C18.5741 28.3456 18.1807 27.9521 17.6951 27.9521H12.0506L13.1292 16.8199H22.3841C22.8696 16.8199 23.263 16.4263 23.263 15.941C23.263 15.4556 22.8696 15.062 22.3841 15.062H13.2995L13.8067 9.82819H23.556C24.0399 9.82819 24.4349 9.43327 24.4349 8.94928C24.4349 8.46413 24.0399 8.07037 23.556 8.07037H13.009C13.0086 8.07037 13.0082 8.07049 13.0077 8.07049C12.5949 8.07037 12.2368 8.361 12.1502 8.76389C12.1496 8.76682 12.1485 8.76963 12.1479 8.77256C12.1435 8.79448 12.1406 8.81686 12.1376 8.83936C12.1368 8.84651 12.1353 8.85331 12.1346 8.86046C12.1345 8.86186 12.1341 8.86315 12.134 8.86456L11.5335 15.062H0.87891C0.3934 15.062 0 15.4556 0 15.941C0 16.4263 0.3934 16.8199 0.87891 16.8199H11.3631L10.2845 27.9521H7.1487C6.66319 27.9521 6.26979 28.3456 6.26979 28.831C6.26979 29.3164 6.66319 29.71 7.1487 29.71H10.1143L9.52691 35.771C9.5268 35.772 9.5268 35.7729 9.52668 35.7737L8.61859 45.1463C8.61847 45.1474 8.61835 45.1485 8.61824 45.1495L8.61789 45.1529C8.61671 45.1651 8.61683 45.177 8.61613 45.1892C8.61531 45.2054 8.61367 45.2212 8.61367 45.2376C8.61367 45.2383 8.61378 45.239 8.61378 45.2398C8.61378 45.2624 8.61542 45.2847 8.61706 45.307C8.61777 45.3141 8.61753 45.3214 8.61835 45.3284C8.6207 45.3511 8.62457 45.3735 8.62867 45.3958C8.62984 45.4024 8.63042 45.409 8.63171 45.4155C8.63511 45.4324 8.63992 45.4486 8.64437 45.4652C8.64742 45.4768 8.64988 45.4886 8.65339 45.5C8.65445 45.5031 8.65585 45.5062 8.65679 45.5095C8.69933 45.6402 8.77152 45.7577 8.86574 45.8535C8.8675 45.8553 8.8689 45.8573 8.87066 45.8589C8.88003 45.8683 8.89023 45.8767 8.90007 45.8856C8.96066 45.9412 9.0291 45.9883 9.10398 46.0252C9.11957 46.0329 9.13492 46.041 9.15086 46.0477C9.15566 46.0498 9.16082 46.0512 9.16574 46.0531C9.18777 46.0619 9.20992 46.0703 9.23277 46.0775C9.23488 46.0781 9.23687 46.0784 9.23898 46.0791C9.265 46.0868 9.29125 46.0936 9.31808 46.0992C9.3216 46.0999 9.32523 46.1001 9.32863 46.1008C9.35418 46.1056 9.37984 46.1097 9.40597 46.1123C9.40656 46.1123 9.40703 46.1124 9.40762 46.1125C9.43644 46.1153 9.46504 46.1167 9.4934 46.1167C9.49375 46.1167 9.49422 46.1166 9.49469 46.1166H13.4074C13.8394 49.3924 16.6478 51.9295 20.0398 51.9295C23.4316 51.9295 26.24 49.3924 26.6721 46.1166H40.7697C41.2019 49.3924 44.0102 51.9295 47.4021 51.9295C50.7938 51.9295 53.6025 49.3924 54.0347 46.1166H57.9483C57.9489 46.1166 57.9496 46.1167 57.9502 46.1167C57.9795 46.1167 58.0083 46.115 58.0369 46.1122C58.042 46.1117 58.0469 46.1106 58.0521 46.1101C58.075 46.1074 58.0977 46.1042 58.12 46.0997C58.1296 46.0979 58.1388 46.0953 58.1483 46.0931C58.1655 46.0891 58.1829 46.0849 58.1998 46.0798C58.2112 46.0764 58.2224 46.0724 58.2336 46.0686C58.248 46.0636 58.2625 46.0585 58.2766 46.0527C58.2888 46.0479 58.3004 46.0427 58.3123 46.0374C58.3252 46.0314 58.338 46.0253 58.3506 46.0189C58.3625 46.0128 58.374 46.0065 58.3855 45.9999C58.3976 45.9929 58.4095 45.9856 58.4214 45.9781C58.4324 45.9711 58.4434 45.9639 58.4539 45.9564C58.4659 45.9481 58.4773 45.9393 58.4889 45.9304C58.4985 45.9228 58.5082 45.9153 58.5176 45.9073C58.5296 45.8971 58.541 45.8865 58.5525 45.8756C58.5605 45.8679 58.5688 45.8604 58.5765 45.8525C58.5887 45.8401 58.6003 45.8269 58.6119 45.8137C58.6181 45.8065 58.6246 45.7996 58.6305 45.7924C58.6434 45.7764 58.6552 45.76 58.6669 45.7435C58.6709 45.7377 58.6753 45.7324 58.6792 45.7265C58.6935 45.7051 58.707 45.683 58.7194 45.6603C58.7203 45.6589 58.7212 45.6576 58.7218 45.6561C58.7351 45.6317 58.7473 45.6067 58.7582 45.5809C58.7612 45.5736 58.7635 45.5659 58.7665 45.5586C58.7736 45.5404 58.7807 45.5222 58.7866 45.5034C58.7905 45.4912 58.7933 45.4786 58.7967 45.4663C58.8006 45.4517 58.8047 45.4372 58.808 45.4223C58.8109 45.409 58.8128 45.3954 58.815 45.382C58.817 45.3701 58.8196 45.3585 58.8211 45.3465C58.8584 45.0479 59.5466 39.5261 59.854 35.9556C59.8543 35.9522 59.8545 35.9487 59.8548 35.9453C59.9433 34.916 60 34.0493 60 33.5187C60 27.2185 54.8744 22.0928 48.5742 22.0928ZM44.6436 23.8509H48.2393L47.78 29.1239H44.1843L44.6436 23.8509ZM20.0401 50.1716C17.3193 50.1716 15.1059 47.9581 15.1059 45.2375C15.1059 42.5168 17.3194 40.3034 20.0401 40.3034C22.7607 40.3034 24.9742 42.5168 24.9742 45.2375C24.9742 47.9581 22.7607 50.1716 20.0401 50.1716ZM47.4021 50.1716C44.6814 50.1716 42.4681 47.9581 42.4681 45.2375C42.4681 42.5168 44.6815 40.3034 47.4021 40.3034C50.1228 40.3034 52.3363 42.5168 52.3363 45.2375C52.3363 47.9581 50.1228 50.1716 47.4021 50.1716ZM57.1717 44.3582H54.0349C53.6029 41.0822 50.7944 38.545 47.4023 38.545C44.0104 38.545 41.2019 41.0823 40.7699 44.3582H26.6724C26.2405 41.0822 23.4321 38.545 20.0401 38.545C16.6481 38.545 13.8394 41.0823 13.4075 44.3582H10.4609L11.1991 36.7405H42.715V36.741C42.7155 36.741 42.7158 36.741 42.7163 36.741C42.7457 36.741 42.7749 36.7394 42.8037 36.7364C42.8091 36.736 42.8144 36.7348 42.8198 36.7341C42.8427 36.7314 42.8656 36.7281 42.8881 36.7236C42.8978 36.7217 42.9073 36.719 42.9169 36.7166C42.9345 36.7124 42.9521 36.7083 42.9692 36.7031C42.9809 36.6996 42.992 36.6954 43.0034 36.6914C43.0182 36.6863 43.0329 36.6812 43.0472 36.6754C43.0595 36.6703 43.0714 36.6647 43.0833 36.6591C43.0963 36.6531 43.1093 36.6471 43.1219 36.6406C43.1338 36.6342 43.1456 36.6274 43.1574 36.6206C43.1695 36.6136 43.1814 36.6065 43.1931 36.599C43.2045 36.5916 43.2153 36.5838 43.2262 36.5761C43.2378 36.5679 43.249 36.5595 43.2603 36.5507C43.2704 36.5426 43.2803 36.5343 43.2902 36.5257C43.3013 36.5161 43.3122 36.5063 43.3228 36.4961C43.3317 36.4875 43.3406 36.4787 43.3492 36.4697C43.3598 36.4587 43.37 36.4473 43.3801 36.4357C43.3879 36.4266 43.3956 36.4174 43.4031 36.4081C43.4129 36.3958 43.4221 36.3831 43.4313 36.3703C43.4382 36.3607 43.4449 36.3511 43.4514 36.3413C43.46 36.328 43.4682 36.3144 43.476 36.3006C43.482 36.2903 43.4881 36.28 43.4935 36.2694C43.5009 36.2556 43.5072 36.2415 43.5139 36.2274C43.519 36.216 43.5243 36.2049 43.529 36.1931C43.5347 36.1793 43.5395 36.1651 43.5446 36.151C43.5489 36.1384 43.5535 36.1259 43.5574 36.113C43.5612 36.0994 43.5644 36.0854 43.5679 36.0716C43.5713 36.0577 43.5751 36.0438 43.5778 36.0297C43.5804 36.0158 43.5821 36.0018 43.5842 35.9877C43.5863 35.9732 43.5888 35.9589 43.5902 35.9441C43.5904 35.942 43.5909 35.94 43.591 35.9379L44.0315 30.8812H48.5739C51.2668 30.8812 52.4813 32.2765 53.767 33.7538C54.8279 34.9726 56.0123 36.3326 58.0256 36.6644C57.7699 39.3679 57.3566 42.8385 57.1717 44.3582ZM58.1759 34.903C56.8698 34.6368 56.0662 33.7186 55.0928 32.6002C53.8753 31.2015 52.389 29.4947 49.5398 29.1766L49.9945 23.9561C54.6544 24.6453 58.2422 28.6705 58.2422 33.5189C58.2422 33.8483 58.2176 34.3269 58.1759 34.903Z" fill="#223D69"/>
<path d="M20.0401 42.0147C18.2631 42.0147 16.8174 43.4603 16.8174 45.2374C16.8174 47.0144 18.2631 48.46 20.0401 48.46C21.817 48.46 23.2627 47.0144 23.2627 45.2374C23.2627 43.4605 21.817 42.0147 20.0401 42.0147ZM20.0401 46.7022C19.2323 46.7022 18.5752 46.0452 18.5752 45.2374C18.5752 44.4296 19.2323 43.7725 20.0401 43.7725C20.8478 43.7725 21.5049 44.4296 21.5049 45.2374C21.5049 46.0452 20.8477 46.7022 20.0401 46.7022Z" fill="#223D69"/>
<path d="M47.4019 42.0147C45.6249 42.0147 44.1792 43.4603 44.1792 45.2374C44.1792 47.0144 45.6249 48.46 47.4019 48.46C49.1788 48.46 50.6245 47.0144 50.6245 45.2374C50.6245 43.4605 49.1788 42.0147 47.4019 42.0147ZM47.4019 46.7022C46.5941 46.7022 45.937 46.0452 45.937 45.2374C45.937 44.4296 46.5941 43.7725 47.4019 43.7725C48.2096 43.7725 48.8667 44.4296 48.8667 45.2374C48.8667 46.0452 48.2096 46.7022 47.4019 46.7022Z" fill="#223D69"/>
<path d="M8.32025 22.0931H4.02344C3.53793 22.0931 3.14453 22.4866 3.14453 22.972C3.14453 23.4574 3.53793 23.8509 4.02344 23.8509H8.32025C8.80576 23.8509 9.19916 23.4574 9.19916 22.972C9.19916 22.4866 8.80576 22.0931 8.32025 22.0931Z" fill="#223D69"/>
</svg>
