<svg width="36" height="30" viewBox="0 0 36 30" fill="none" xmlns="http://www.w3.org/2000/svg">
<circle cx="12" cy="14" r="12" fill="#EBF5FE"/>
<path d="M33.5445 9.80735C33.0787 9.71692 32.5972 9.81432 32.1986 10.0796C31.8001 10.3448 31.5148 10.7578 31.4012 11.2338L30.331 15.3588C30.0504 15.1668 29.7237 15.0595 29.3875 15.0491C29.0513 15.0386 28.719 15.1254 28.4278 15.2997L25.3294 17.1799C24.7167 17.5529 24.2086 18.0846 23.8549 18.7226C23.5013 19.3606 23.3143 20.0829 23.3125 20.8183V24.3752H22.4063C22.2861 24.3752 22.1708 24.4246 22.0858 24.5125C22.0009 24.6004 21.9531 24.7196 21.9531 24.8439V28.5939C21.9531 28.7182 22.0009 28.8375 22.0858 28.9254C22.1708 29.0133 22.2861 29.0627 22.4063 29.0627H30.5625C30.6827 29.0627 30.7979 29.0133 30.8829 28.9254C30.9679 28.8375 31.0156 28.7182 31.0156 28.5939V24.8439C31.0156 24.7196 30.9679 24.6004 30.8829 24.5125C30.7979 24.4246 30.6827 24.3752 30.5625 24.3752H29.6563V23.8314C29.6562 23.6286 29.6986 23.4281 29.7805 23.2438C29.8624 23.0595 29.9818 22.8957 30.1307 22.7636L32.2436 20.8886C32.5907 20.5816 32.8397 20.173 32.9577 19.7167L34.9238 12.1267C34.9651 11.9676 34.9857 11.8035 34.985 11.6388C34.9828 11.2093 34.8387 10.7936 34.5767 10.4605C34.3147 10.1274 33.9505 9.89693 33.5445 9.80735ZM30.1094 28.1252H22.8594V25.3127H30.1094V28.1252ZM34.0488 11.8834L32.0823 19.4744C32.0117 19.7482 31.8624 19.9934 31.6541 20.1775L29.5412 22.0525C29.2931 22.2725 29.0939 22.5453 28.9574 22.8524C28.8208 23.1594 28.7501 23.4934 28.75 23.8314V24.3752H24.2188V20.8183C24.2199 20.2464 24.365 19.6847 24.6397 19.1884C24.9145 18.6921 25.3094 18.2784 25.7857 17.988L28.8805 16.1097C29.0184 16.0278 29.1746 15.9846 29.3336 15.9845C29.5018 15.983 29.667 16.0305 29.8103 16.1218C29.9535 16.213 30.0689 16.3441 30.1434 16.5002C30.2425 16.7268 30.255 16.9837 30.1784 17.2195C30.1018 17.4552 29.9418 17.6522 29.7306 17.7709L27.1931 19.2836C27.1415 19.3144 27.0962 19.3554 27.06 19.4042C27.0237 19.4531 26.9971 19.5089 26.9816 19.5684C26.9662 19.6279 26.9622 19.6899 26.97 19.751C26.9777 19.8121 26.997 19.871 27.0268 19.9244C27.0565 19.9778 27.0961 20.0245 27.1434 20.0621C27.1906 20.0996 27.2445 20.1271 27.302 20.1431C27.3596 20.1591 27.4196 20.1632 27.4786 20.1552C27.5377 20.1472 27.5946 20.1272 27.6462 20.0964L30.1837 18.5838C30.5638 18.3646 30.8571 18.0139 31.012 17.5932C31.1669 17.1725 31.1734 16.7088 31.0306 16.2836L32.2771 11.4789C32.3336 11.2364 32.4762 11.0246 32.6765 10.8857C32.8769 10.7468 33.1204 10.6908 33.3587 10.7289C33.5609 10.7734 33.7423 10.8879 33.8732 11.0533C34.0041 11.2188 34.0766 11.4254 34.0787 11.6392C34.0794 11.7217 34.0693 11.8038 34.0488 11.8834Z" fill="#223D69"/>
<path d="M20.5938 24.3749H19.6875V20.818C19.686 20.0827 19.4995 19.3605 19.1462 18.7224C18.793 18.0844 18.2852 17.5525 17.6729 17.1791L14.5708 15.2966C14.2795 15.1228 13.9471 15.0364 13.6109 15.0472C13.2748 15.058 12.9481 15.1654 12.6677 15.3575L11.5979 11.2325C11.4838 10.7567 11.1982 10.344 10.7996 10.0788C10.401 9.81367 9.91955 9.71611 9.45371 9.8061C9.21282 9.85875 8.98481 9.96153 8.78353 10.1082C8.58226 10.2549 8.41193 10.4424 8.2829 10.6593C8.15388 10.8762 8.06886 11.118 8.03301 11.37C7.99717 11.622 8.01125 11.8788 8.0744 12.125L10.041 19.7159C10.1587 20.1723 10.4075 20.581 10.7546 20.8878L12.8676 22.7628C13.0168 22.8948 13.1366 23.0586 13.2188 23.243C13.3011 23.4274 13.3437 23.628 13.3438 23.8311V24.3749H12.4375C12.3174 24.3749 12.2021 24.4242 12.1171 24.5121C12.0322 24.6001 11.9844 24.7193 11.9844 24.8436V28.5936C11.9844 28.7179 12.0322 28.8372 12.1171 28.9251C12.2021 29.013 12.3174 29.0624 12.4375 29.0624H20.5938C20.714 29.0624 20.8292 29.013 20.9142 28.9251C20.9992 28.8372 21.0469 28.7179 21.0469 28.5936V24.8436C21.0469 24.7193 20.9992 24.6001 20.9142 24.5121C20.8292 24.4242 20.714 24.3749 20.5938 24.3749ZM13.4589 22.0513L11.346 20.1763C11.1375 19.9923 10.9882 19.7471 10.9178 19.4731L8.95119 11.8827C8.93077 11.8032 8.92072 11.7212 8.92129 11.6389C8.92257 11.4243 8.99477 11.2165 9.12591 11.0502C9.25704 10.8838 9.43922 10.7689 9.64221 10.7244C9.88053 10.6866 10.1239 10.7427 10.3241 10.8816C10.5244 11.0205 10.667 11.232 10.7238 11.4744L11.9704 16.2786C11.8274 16.7039 11.8339 17.1677 11.9888 17.5885C12.1437 18.0092 12.437 18.3601 12.8173 18.5792L15.3548 20.0919C15.4589 20.154 15.5827 20.1708 15.6989 20.1386C15.8151 20.1063 15.9141 20.0276 15.9742 19.9199C16.0343 19.8121 16.0505 19.684 16.0193 19.5638C15.9881 19.4437 15.9121 19.3412 15.8079 19.2791L13.2704 17.7664C13.059 17.6478 12.8989 17.4508 12.8223 17.2151C12.7456 16.9793 12.7581 16.7223 12.8571 16.4956C12.9321 16.3407 13.0477 16.2106 13.1906 16.1202C13.3335 16.0298 13.498 15.9827 13.6655 15.9842C13.8234 15.9839 13.9787 16.0262 14.1159 16.107L17.2144 17.9881C17.6907 18.2784 18.0856 18.692 18.3604 19.1882C18.6351 19.6844 18.7802 20.2461 18.7813 20.818V24.3749H14.25V23.8311C14.2501 23.493 14.1794 23.1588 14.0428 22.8516C13.9063 22.5443 13.7071 22.2713 13.4589 22.0513ZM20.1407 28.1249H12.8907V25.3124H20.1407V28.1249Z" fill="#223D69"/>
<path d="M28.75 7.31245V1.4062C28.7502 1.32384 28.7293 1.24289 28.6896 1.1715C28.6499 1.10011 28.5927 1.04081 28.5238 0.999556C28.4549 0.958305 28.3767 0.936564 28.2971 0.936523C28.2175 0.936483 28.1393 0.958144 28.0703 0.999325L27.4246 1.38089C26.7126 1.80284 25.9107 2.03602 25.0905 2.05965C24.2702 2.08329 23.4571 1.89665 22.7234 1.51636L21.6989 0.986668C21.636 0.954157 21.5667 0.937231 21.4964 0.937231C21.4261 0.937231 21.3567 0.954157 21.2938 0.986668L20.2766 1.51448C19.5429 1.89543 18.7294 2.08256 17.9088 2.05917C17.0882 2.03578 16.2859 1.80259 15.5736 1.38042L14.9297 0.999325C14.8607 0.958144 14.7825 0.936483 14.7029 0.936523C14.6233 0.936564 14.5451 0.958305 14.4762 0.999556C14.4073 1.04081 14.3501 1.10011 14.3104 1.1715C14.2707 1.24289 14.2498 1.32384 14.25 1.4062V7.31245C14.2478 9.43687 14.8049 11.5218 15.8614 13.3435C16.918 15.1652 18.4341 16.6548 20.2471 17.6526L21.2866 18.2259C21.3523 18.2622 21.4256 18.2811 21.5 18.2811C21.5745 18.2811 21.6478 18.2622 21.7134 18.2259L22.7529 17.6526C24.566 16.6549 26.0822 15.1653 27.1387 13.3436C28.1953 11.5219 28.7523 9.43689 28.75 7.31245ZM21.5 17.2814L20.674 16.8253C19.0059 15.9074 17.611 14.537 16.6389 12.861C15.6668 11.1851 15.1543 9.26693 15.1563 7.31245V2.21386C15.9954 2.70397 16.9382 2.97314 17.9015 2.99766C18.8649 3.02219 19.8193 2.80131 20.6808 2.35448L21.4964 1.93261L22.3184 2.35729C23.1801 2.8039 24.1348 3.02441 25.0984 2.99939C26.0619 2.97438 27.0047 2.70461 27.8438 2.21386V7.31245C27.8458 9.26696 27.3333 11.1851 26.3612 12.8611C25.3891 14.5371 23.9942 15.9075 22.3261 16.8253L21.5 17.2814Z" fill="#223D69"/>
<path d="M26.9375 4.2346C26.9375 4.16462 26.9224 4.09553 26.8933 4.03238C26.8641 3.96924 26.8217 3.91364 26.7691 3.86968C26.7165 3.82571 26.655 3.7945 26.5892 3.77831C26.5234 3.76213 26.4549 3.76139 26.3888 3.77616C24.8767 4.1096 23.3001 3.90426 21.9151 3.1935L21.7012 3.08335C21.6379 3.05038 21.5681 3.0332 21.4973 3.0332C21.4265 3.0332 21.3566 3.05038 21.2934 3.08335L21.084 3.19163C19.6989 3.90336 18.1216 4.10922 16.609 3.77569C16.543 3.76133 16.4748 3.76237 16.4093 3.77873C16.3437 3.7951 16.2826 3.82639 16.2302 3.87031C16.1779 3.91423 16.1356 3.96968 16.1066 4.03262C16.0776 4.09556 16.0625 4.1644 16.0625 4.23413V7.31241C16.0606 9.09693 16.5285 10.8483 17.4161 12.3785C18.3036 13.9087 19.5773 15.1599 21.1003 15.9979L21.2866 16.101C21.3522 16.1372 21.4254 16.1561 21.4998 16.1561C21.5741 16.1561 21.6474 16.1372 21.713 16.101L21.8997 15.9979C23.4227 15.1599 24.6964 13.9087 25.5839 12.3785C26.4715 10.8483 26.9394 9.09693 26.9375 7.31241V4.2346ZM26.0313 7.31241C26.033 8.92165 25.6124 10.5012 24.8144 11.8826C24.0163 13.2639 22.8708 14.3953 21.5 15.156C20.1292 14.3953 18.9837 13.2639 18.1857 11.8826C17.3876 10.5012 16.9671 8.92165 16.9688 7.31241V4.79382C18.5163 5.01599 20.0926 4.7502 21.4918 4.03116L21.5 4.02647L21.5109 4.03256C22.9092 4.75131 24.4847 5.01679 26.0313 4.79428V7.31241Z" fill="#223D69"/>
<path d="M24.0633 6.52885L20.5937 10.1181L19.179 8.65463C19.0936 8.56924 18.9791 8.52199 18.8603 8.52306C18.7415 8.52413 18.6279 8.57343 18.5438 8.66034C18.4598 8.74725 18.4122 8.86482 18.4111 8.98772C18.4101 9.11063 18.4558 9.22903 18.5383 9.31744L20.2733 11.1123C20.3583 11.2002 20.4736 11.2495 20.5937 11.2495C20.7139 11.2495 20.8291 11.2002 20.9141 11.1123L24.704 7.19166C24.7473 7.14842 24.7818 7.09669 24.8055 7.0395C24.8293 6.98231 24.8418 6.92081 24.8423 6.85857C24.8428 6.79633 24.8314 6.7346 24.8086 6.67699C24.7858 6.61938 24.7522 6.56705 24.7096 6.52304C24.6671 6.47902 24.6165 6.44422 24.5608 6.42065C24.5051 6.39708 24.4454 6.38522 24.3853 6.38576C24.3251 6.3863 24.2656 6.39923 24.2104 6.4238C24.1551 6.44837 24.1051 6.48408 24.0633 6.52885Z" fill="black"/>
</svg>
