<svg width="22" height="22" viewBox="0 0 22 22" fill="none" xmlns="http://www.w3.org/2000/svg">
<path d="M1.9574 19.4268H0.644531C0.288578 19.4268 0 19.1832 0 18.8826V13.0496C0 12.749 0.288578 12.5053 0.644531 12.5053H1.9574C2.31335 12.5053 2.60193 12.749 2.60193 13.0496V18.8826C2.60193 19.1832 2.31335 19.4268 1.9574 19.4268Z" fill="#223D69"/>
<path d="M20.3872 14.8886L16.5358 16.6163C16.2389 16.9304 15.8843 17.1805 15.4956 17.3548C14.7333 17.6967 13.841 17.749 13.0007 17.4303L10.2169 16.3744C9.80701 16.219 9.60136 15.7611 9.75755 15.3519C9.9137 14.9426 10.3726 14.7367 10.7824 14.8922L13.5662 15.9481C14.4286 16.2752 15.3975 15.8405 15.726 14.9794C15.8155 14.7448 15.6989 14.4821 15.4647 14.3916C14.0345 13.8387 9.46627 12.1007 9.46627 12.1007C8.28811 11.6538 6.97992 11.6927 5.82943 12.2086L3.89111 13.0781V17.9193L5.95125 16.9881L12.9858 19.593C13.8647 19.9192 14.8372 19.8868 15.6932 19.5029L21.324 16.9771C21.7354 16.7926 22.0001 16.3837 22.0001 15.9328C22.0001 15.1029 21.1444 14.5489 20.3872 14.8886Z" fill="#223D69"/>
<path d="M9.76502 6.121C9.16891 5.90113 8.6135 5.66175 8.43724 5.58467C8.32006 5.48777 8.32415 5.35427 8.33222 5.29824C8.34378 5.21793 8.40261 5.02148 8.69918 4.9321C9.14579 4.79765 9.57471 4.97082 9.81624 5.10531C9.91133 5.15825 9.99692 5.22575 10.0802 5.29583C10.3231 5.50028 10.6857 5.4989 10.9275 5.27972C11.1913 5.04068 11.2113 4.63308 10.9722 4.3693L10.8434 4.24812C10.8133 4.22286 10.3416 3.83442 9.64887 3.6683V3.04341C9.64887 2.68501 9.35832 2.39441 8.99987 2.39441C8.64147 2.39441 8.35092 2.68496 8.35092 3.04341V3.69142C8.34305 3.6937 8.33527 3.69546 8.32737 3.69787C7.63897 3.90523 7.15196 4.44827 7.05622 5.1151C6.96629 5.74155 7.2379 6.34418 7.76495 6.68785C7.93244 6.78169 8.44369 6.99881 9.31887 7.33044C9.48052 7.39004 10.0029 7.61172 9.9405 7.96135C9.89397 8.22205 9.57303 8.49167 9.11662 8.49167C8.64027 8.49167 8.18209 8.30059 7.89003 7.98035C7.65375 7.72129 7.24404 7.69529 6.98184 7.9281C6.71333 8.16649 6.69155 8.57757 6.93213 8.84299C7.30527 9.25467 7.80066 9.54488 8.35092 9.68513V10.331C8.35092 10.6894 8.64147 10.98 8.99987 10.98C9.35832 10.98 9.64887 10.6894 9.64887 10.331V9.72084C10.4508 9.53779 11.0735 8.94912 11.2095 8.18793C11.3337 7.49214 11.0195 6.58373 9.76502 6.121Z" fill="#223D69"/>
<path d="M17.8065 4.30578L18.104 4.50274V2.18381H16.7974V4.50274L17.0948 4.30578C17.3105 4.1629 17.5908 4.1629 17.8065 4.30578Z" fill="#223D69"/>
<path d="M21.3551 2.18381H19.3931V5.70256C19.3931 5.93988 19.2627 6.15807 19.0536 6.27035C18.8449 6.3825 18.5909 6.37115 18.3927 6.23997L17.4507 5.61619L16.5087 6.23997C16.3109 6.37098 16.0569 6.38267 15.8479 6.27035C15.6388 6.15807 15.5084 5.93992 15.5084 5.70256V2.18381H13.1597C12.8037 2.18381 12.5151 2.47239 12.5151 2.82834V10.5932C12.5151 10.9491 12.8037 11.2377 13.1597 11.2377H21.3551C21.7111 11.2377 21.9996 10.9491 21.9996 10.5932V2.82834C21.9996 2.47239 21.7111 2.18381 21.3551 2.18381Z" fill="#223D69"/>
</svg>
