<svg width="60" height="60" viewBox="0 0 60 60" fill="none" xmlns="http://www.w3.org/2000/svg">
<path d="M54.4838 38.0356C54.4809 37.1723 54.2498 36.3252 53.8139 35.58C53.3781 34.8349 52.7529 34.2182 52.0019 33.7925C52.0871 33.7184 52.1821 33.659 52.2627 33.5784C52.9439 32.8979 53.408 32.0307 53.5964 31.0865C53.7848 30.1422 53.6889 29.1633 53.3209 28.2736C52.9529 27.3838 52.3294 26.6231 51.5291 26.0878C50.7288 25.5524 49.7877 25.2664 48.8249 25.2658H47.3715C47.125 25.2691 46.8898 25.3694 46.7167 25.5448C46.5436 25.7203 46.4465 25.9568 46.4465 26.2033C46.4465 26.4498 46.5436 26.6864 46.7167 26.8618C46.8898 27.0373 47.125 27.1375 47.3715 27.1408H48.8249C49.218 27.1401 49.6075 27.217 49.9709 27.367C50.3344 27.5169 50.6647 27.7371 50.9429 28.0149C51.2212 28.2926 51.442 28.6226 51.5926 28.9857C51.7432 29.3489 51.8207 29.7382 51.8207 30.1314C51.8207 30.5246 51.7432 30.9139 51.5926 31.277C51.442 31.6402 51.2212 31.9701 50.9429 32.2479C50.6647 32.5257 50.3344 32.7458 49.9709 32.8958C49.6075 33.0458 49.218 33.1226 48.8249 33.1219H47.4841C47.2378 33.1254 47.0027 33.2257 46.8297 33.4012C46.6567 33.5766 46.5598 33.8131 46.5598 34.0594C46.5598 34.3058 46.6567 34.5423 46.8297 34.7177C47.0027 34.8932 47.2378 34.9935 47.4841 34.9969C47.9189 34.9957 49.1369 34.9988 49.5719 34.9983C50.3774 34.9983 51.1499 35.3183 51.7194 35.8878C52.289 36.4574 52.6089 37.2299 52.6089 38.0353C52.6089 38.8408 52.289 39.6133 51.7194 40.1829C51.1499 40.7524 50.3774 41.0724 49.5719 41.0724H47.8269C47.5806 41.0759 47.3455 41.1762 47.1726 41.3516C46.9996 41.527 46.9026 41.7635 46.9026 42.0099C46.9026 42.2562 46.9996 42.4927 47.1726 42.6681C47.3455 42.8436 47.5806 42.9439 47.8269 42.9474H48.7383C49.3668 42.9545 49.9671 43.2092 50.409 43.6562C50.8509 44.1032 51.0987 44.7063 51.0987 45.3349C51.0987 45.9634 50.8509 46.5666 50.409 47.0135C49.9671 47.4605 49.3667 47.7152 48.7382 47.7223H45.5006C45.2543 47.7258 45.0192 47.8261 44.8462 48.0015C44.6732 48.177 44.5763 48.4134 44.5763 48.6598C44.5763 48.9062 44.6732 49.1426 44.8462 49.3181C45.0192 49.4935 45.2543 49.5938 45.5006 49.5973C45.7963 49.5553 46.0974 49.5743 46.3854 49.6532C46.6734 49.7321 46.9421 49.8692 47.1751 50.056C47.408 50.2428 47.6002 50.4754 47.7398 50.7393C47.8794 51.0033 47.9634 51.2931 47.9866 51.5908C48.0098 51.8885 47.9718 52.1878 47.8748 52.4703C47.7778 52.7527 47.624 53.0122 47.4228 53.2329C47.2217 53.4536 46.9774 53.6307 46.7051 53.7532C46.4328 53.8758 46.1383 53.9413 45.8397 53.9456C40.6475 53.7791 28.5799 54.5161 23.6662 53.07L19.6594 52.1091V29.4652L26.5574 21.6971C28.6331 19.3551 30.225 16.6258 31.2417 13.6661C31.9513 11.6835 32.5359 9.65835 32.9922 7.60259C33.0658 7.16741 33.2625 6.7624 33.5589 6.43536C33.8552 6.10831 34.239 5.87289 34.6648 5.75688C35.1075 5.62427 35.5738 5.59023 36.031 5.65714C36.4882 5.72406 36.9252 5.89031 37.3112 6.14421C37.6973 6.3981 38.023 6.73349 38.2656 7.12677C38.5081 7.52006 38.6616 7.9617 38.7151 8.42065C38.9608 10.5936 39.138 14.6884 37.9649 17.3378C37.2714 19.1547 36.1192 22.1617 35.3753 24.0729C35.2491 24.4156 35.2071 24.7837 35.2527 25.146C35.2984 25.5084 35.4305 25.8545 35.6378 26.1552C35.8451 26.4559 36.1216 26.7023 36.4441 26.8739C36.7666 27.0454 37.1255 27.1369 37.4907 27.1408H43.6215C43.8676 27.137 44.1024 27.0365 44.2751 26.8611C44.4478 26.6857 44.5446 26.4494 44.5446 26.2033C44.5446 25.9571 44.4477 25.7208 44.275 25.5454C44.1023 25.37 43.8676 25.2696 43.6215 25.2658H37.4907C37.4275 25.2674 37.365 25.2533 37.3087 25.2248C37.2523 25.1963 37.204 25.1543 37.1679 25.1024C37.1318 25.0506 37.1092 24.9907 37.102 24.9279C37.0948 24.8652 37.1033 24.8017 37.1267 24.743C38.2924 21.3507 40.3067 17.6056 40.6558 14.1285C40.8257 12.1613 40.8001 10.1821 40.5792 8.22005C40.1541 3.09436 32.3058 1.90638 31.152 7.24281C30.062 12.0511 28.4701 16.8122 25.1553 20.4524L19.3895 26.9476C19.1453 26.3973 18.7468 25.9296 18.2422 25.6011C17.7376 25.2727 17.1487 25.0975 16.5466 25.0969H8.62501C7.80099 25.0965 7.01047 25.423 6.4269 26.0048C5.84333 26.5866 5.51437 27.3761 5.51221 28.2001V43.4624C5.51221 43.711 5.61098 43.9495 5.78679 44.1253C5.96261 44.3011 6.20107 44.3999 6.44971 44.3999C6.69835 44.3999 6.9368 44.3011 7.11262 44.1253C7.28844 43.9495 7.38721 43.711 7.38721 43.4624V28.2001C7.38888 27.8732 7.52014 27.5603 7.75218 27.3301C7.98423 27.0998 8.29812 26.971 8.62501 26.9719H16.5466C16.8735 26.971 17.1874 27.0998 17.4194 27.3301C17.6515 27.5603 17.7827 27.8732 17.7844 28.2001V53.1377C17.7839 53.4658 17.6534 53.7803 17.4213 54.0123C17.1893 54.2442 16.8747 54.3747 16.5466 54.375H8.62501C8.29691 54.3747 7.98234 54.2442 7.7503 54.0123C7.51825 53.7803 7.38768 53.4658 7.38721 53.1377V47.2124C7.38721 46.9638 7.28844 46.7253 7.11262 46.5495C6.9368 46.3737 6.69835 46.2749 6.44971 46.2749C6.20107 46.2749 5.96261 46.3737 5.78679 46.5495C5.61098 46.7253 5.51221 46.9638 5.51221 47.2124V53.1377C5.51317 53.9629 5.84144 54.7541 6.42501 55.3375C7.00858 55.921 7.79978 56.2492 8.62501 56.25H16.5466C17.2185 56.2478 17.8716 56.0277 18.408 55.6229C18.9443 55.2181 19.3349 54.6503 19.5212 54.0047L23.2267 54.8932C28.319 56.3985 40.4683 55.6586 45.8398 55.8208C46.5702 55.8211 47.2871 55.6236 47.9143 55.2493C48.5415 54.875 49.0557 54.3379 49.4022 53.6949C49.7487 53.052 49.9147 52.3272 49.8825 51.5975C49.8502 50.8678 49.6211 50.1605 49.2192 49.5505C50.1715 49.4526 51.0617 49.032 51.7422 48.3587C52.5285 47.5679 52.9751 46.5014 52.9869 45.3863C52.9987 44.2712 52.5747 43.1955 51.8053 42.3883C52.6132 41.9847 53.2922 41.3633 53.7655 40.5941C54.2388 39.8249 54.4876 38.9387 54.4838 38.0356Z" fill="#223D69"/>
<path d="M15.4873 33.5459C15.4788 32.7821 15.1695 32.0526 14.6264 31.5155C14.0834 30.9784 13.3504 30.6772 12.5866 30.6772C11.8228 30.6773 11.0899 30.9785 10.5469 31.5156C10.0038 32.0526 9.69449 32.7822 9.68604 33.5459C9.69451 34.3097 10.0038 35.0392 10.5469 35.5763C11.09 36.1134 11.8229 36.4146 12.5867 36.4146C13.3505 36.4145 14.0834 36.1133 14.6265 35.5762C15.1695 35.0392 15.4788 34.3096 15.4873 33.5459ZM11.561 33.5459C11.5649 33.2764 11.6746 33.0192 11.8665 32.83C12.0584 32.6408 12.3171 32.5347 12.5867 32.5347C12.8562 32.5347 13.1149 32.6408 13.3068 32.83C13.4987 33.0192 13.6085 33.2764 13.6123 33.5459C13.6084 33.8153 13.4986 34.0724 13.3067 34.2615C13.1148 34.4507 12.8561 34.5567 12.5867 34.5567C12.3172 34.5567 12.0586 34.4507 11.8666 34.2615C11.6747 34.0724 11.5649 33.8153 11.561 33.5459Z" fill="#223D69"/>
</svg>
