<svg width="60" height="60" viewBox="0 0 60 60" fill="none" xmlns="http://www.w3.org/2000/svg">
<path d="M54.9197 19.6144C53.956 19.4335 52.9597 19.6283 52.1351 20.1588C51.3105 20.6893 50.7202 21.5153 50.4853 22.4672L48.2709 30.7172C47.6906 30.3332 47.0146 30.1187 46.319 30.0978C45.6234 30.077 44.9358 30.2506 44.3334 30.5991L37.9228 34.3594C36.6553 35.1056 35.6039 36.169 34.8722 37.4449C34.1405 38.7209 33.7538 40.1654 33.75 41.6363V48.75H31.875C31.6264 48.75 31.3879 48.8488 31.2121 49.0246C31.0363 49.2004 30.9375 49.4389 30.9375 49.6875V57.1875C30.9375 57.4362 31.0363 57.6746 31.2121 57.8504C31.3879 58.0263 31.6264 58.125 31.875 58.125H48.75C48.9986 58.125 49.2371 58.0263 49.4129 57.8504C49.5887 57.6746 49.6875 57.4362 49.6875 57.1875V49.6875C49.6875 49.4389 49.5887 49.2004 49.4129 49.0246C49.2371 48.8488 48.9986 48.75 48.75 48.75H46.875V47.6625C46.8749 47.2568 46.9626 46.8559 47.132 46.4873C47.3014 46.1186 47.5486 45.791 47.8566 45.5269L52.2281 41.7769C52.9462 41.163 53.4613 40.3458 53.7056 39.4332L57.7734 24.2532C57.8588 23.9349 57.9014 23.6067 57.9 23.2772C57.8954 22.4184 57.5973 21.5869 57.0552 20.9207C56.5132 20.2545 55.7597 19.7936 54.9197 19.6144ZM47.8125 56.25H32.8125V50.625H47.8125V56.25ZM55.9631 23.7666L51.8944 38.9485C51.7483 39.4961 51.4394 39.9865 51.0084 40.3547L46.6369 44.1047C46.1236 44.5446 45.7116 45.0904 45.4291 45.7045C45.1465 46.3186 45.0002 46.9865 45 47.6625V48.75H35.625V41.6363C35.6274 40.4925 35.9276 39.369 36.496 38.3765C37.0644 37.3839 37.8815 36.5565 38.8669 35.9757L45.27 32.2191C45.5553 32.0552 45.8785 31.9689 46.2075 31.9688C46.5555 31.9657 46.8973 32.0608 47.1936 32.2432C47.49 32.4256 47.7289 32.6879 47.8828 33C48.0878 33.4532 48.1137 33.9672 47.9553 34.4387C47.7969 34.9101 47.4658 35.3042 47.0288 35.5416L41.7787 38.5669C41.672 38.6285 41.5784 38.7104 41.5034 38.8082C41.4283 38.9059 41.3732 39.0174 41.3413 39.1364C41.3094 39.2554 41.3012 39.3796 41.3172 39.5017C41.3332 39.6239 41.3731 39.7417 41.4347 39.8485C41.4962 39.9552 41.5782 40.0488 41.6759 40.1238C41.7737 40.1989 41.8852 40.254 42.0042 40.2859C42.1232 40.3179 42.2473 40.3261 42.3695 40.31C42.4917 40.294 42.6095 40.2541 42.7162 40.1925L47.9663 37.1672C48.7527 36.7289 49.3595 36.0274 49.6799 35.1861C50.0004 34.3447 50.014 33.4173 49.7184 32.5669L52.2975 22.9575C52.4144 22.4724 52.7094 22.0489 53.1239 21.7711C53.5384 21.4932 54.0422 21.3813 54.5353 21.4575C54.9535 21.5466 55.329 21.7754 55.5998 22.1063C55.8705 22.4373 56.0205 22.8506 56.025 23.2782C56.0262 23.443 56.0054 23.6073 55.9631 23.7666Z" fill="#223D69"/>
<path d="M28.125 48.75H26.25V41.6363C26.2469 40.1657 25.8609 38.7213 25.13 37.4452C24.3992 36.1691 23.3487 35.1053 22.0819 34.3585L15.6637 30.5935C15.0609 30.2459 14.3732 30.0732 13.6777 30.0947C12.9822 30.1162 12.3064 30.3312 11.7262 30.7153L9.51281 22.4653C9.2767 21.5137 8.68586 20.6883 7.86119 20.158C7.03652 19.6277 6.04036 19.4325 5.07656 19.6125C4.57817 19.7178 4.10642 19.9234 3.68998 20.2167C3.27355 20.5101 2.92114 20.885 2.6542 21.3189C2.38725 21.7527 2.21135 22.2363 2.13718 22.7403C2.06302 23.2442 2.09215 23.758 2.22281 24.2503L6.29156 39.4322C6.53509 40.3449 7.04998 41.1622 7.76812 41.776L12.1397 45.526C12.4484 45.7898 12.6964 46.1174 12.8665 46.4862C13.0366 46.8551 13.1248 47.2564 13.125 47.6625V48.75H11.25C11.0014 48.75 10.7629 48.8488 10.5871 49.0246C10.4113 49.2004 10.3125 49.4389 10.3125 49.6875V57.1875C10.3125 57.4362 10.4113 57.6746 10.5871 57.8504C10.7629 58.0262 11.0014 58.125 11.25 58.125H28.125C28.3736 58.125 28.6121 58.0262 28.7879 57.8504C28.9637 57.6746 29.0625 57.4362 29.0625 57.1875V49.6875C29.0625 49.4389 28.9637 49.2004 28.7879 49.0246C28.6121 48.8488 28.3736 48.75 28.125 48.75ZM13.3631 44.1028L8.99156 40.3528C8.56028 39.9849 8.25126 39.4944 8.10562 38.9466L4.03687 23.7656C3.99462 23.6066 3.97381 23.4427 3.97499 23.2781C3.97765 22.8488 4.12703 22.4334 4.39834 22.1007C4.66965 21.768 5.04658 21.5381 5.46656 21.4491C5.95963 21.3735 6.4631 21.4857 6.87745 21.7635C7.2918 22.0412 7.58688 22.4643 7.70437 22.9491L10.2834 32.5575C9.9876 33.4081 10.0011 34.3357 10.3216 35.1772C10.6421 36.0188 11.249 36.7204 12.0356 37.1588L17.2856 40.1841C17.5012 40.3084 17.7573 40.342 17.9977 40.2775C18.238 40.2129 18.4429 40.0556 18.5672 39.84C18.6915 39.6244 18.7251 39.3683 18.6606 39.128C18.596 38.8876 18.4387 38.6828 18.2231 38.5585L12.9731 35.5331C12.5359 35.2959 12.2046 34.9019 12.046 34.4304C11.8874 33.9589 11.9132 33.4449 12.1181 32.9916C12.2733 32.6817 12.5123 32.4216 12.808 32.2408C13.1036 32.06 13.4441 31.9657 13.7906 31.9688C14.1173 31.9681 14.4386 32.0527 14.7225 32.2144L21.1331 35.9766C22.1185 36.5571 22.9357 37.3844 23.5041 38.3768C24.0726 39.3692 24.3727 40.4926 24.375 41.6363V48.75H15V47.6625C15.0001 46.9862 14.8539 46.3179 14.5713 45.7035C14.2888 45.089 13.8766 44.543 13.3631 44.1028ZM27.1875 56.25H12.1875V50.625H27.1875V56.25Z" fill="#223D69"/>
<path d="M45 14.625V2.81252C45.0003 2.6478 44.9573 2.4859 44.8751 2.34312C44.793 2.20035 44.6746 2.08174 44.5321 1.99923C44.3895 1.91673 44.2277 1.87325 44.063 1.87317C43.8983 1.87309 43.7364 1.91641 43.5938 1.99877L42.2578 2.7619C40.7847 3.60579 39.1257 4.07216 37.4286 4.11943C35.7315 4.1667 34.0491 3.79342 32.5313 3.03283L30.4116 1.97346C30.2815 1.90844 30.138 1.87458 29.9925 1.87458C29.847 1.87458 29.7036 1.90844 29.5735 1.97346L27.4688 3.02908C25.9508 3.79099 24.2677 4.16525 22.5699 4.11846C20.8721 4.07168 19.2122 3.6053 17.7385 2.76096L16.4063 1.99877C16.2636 1.91641 16.1018 1.87309 15.9371 1.87317C15.7723 1.87325 15.6105 1.91673 15.468 1.99923C15.3254 2.08174 15.2071 2.20035 15.1249 2.34312C15.0428 2.4859 14.9997 2.6478 15 2.81252V14.625C14.9955 18.8739 16.148 23.0437 18.334 26.6871C20.5199 30.3305 23.6568 33.3098 27.4078 35.3053L29.5585 36.4519C29.6943 36.5244 29.846 36.5624 30 36.5624C30.154 36.5624 30.3057 36.5244 30.4416 36.4519L32.5922 35.3053C36.3434 33.31 39.4803 30.3307 41.6663 26.6873C43.8523 23.0438 45.0048 18.8739 45 14.625ZM30 34.5628L28.291 33.6506C24.8398 31.8149 21.9538 29.074 19.9426 25.7222C17.9314 22.3703 16.8709 18.534 16.875 14.625V4.42783C18.6112 5.40807 20.5617 5.94641 22.5549 5.99545C24.5481 6.0445 26.5227 5.60274 28.305 4.70908L29.9925 3.86533L31.6931 4.71471C33.4761 5.60792 35.4514 6.04893 37.4449 5.99891C39.4385 5.94888 41.3891 5.40935 43.125 4.42783V14.625C43.1293 18.534 42.069 22.3704 40.0577 25.7223C38.0465 29.0742 35.1603 31.8151 31.7091 33.6506L30 34.5628Z" fill="#223D69"/>
<path d="M41.25 8.46938C41.2501 8.32943 41.2188 8.19124 41.1585 8.06495C41.0982 7.93866 41.0104 7.82747 40.9015 7.73954C40.7927 7.65161 40.6655 7.58917 40.5293 7.55681C40.3932 7.52444 40.2515 7.52297 40.1147 7.5525C36.9863 8.21939 33.7243 7.80871 30.8588 6.38719L30.4163 6.16688C30.2854 6.10094 30.1409 6.06659 29.9944 6.06659C29.8479 6.06659 29.7034 6.10094 29.5725 6.16688L29.1394 6.38344C26.2735 7.80691 23.0103 8.21861 19.8806 7.55156C19.7442 7.52283 19.603 7.52491 19.4674 7.55765C19.3319 7.59039 19.2053 7.65295 19.097 7.74079C18.9887 7.82864 18.9013 7.93954 18.8413 8.06541C18.7813 8.19129 18.7501 8.32898 18.75 8.46844V14.625C18.746 18.1941 19.7142 21.6968 21.5505 24.7572C23.3868 27.8176 26.022 30.3201 29.1731 31.9959L29.5584 32.2022C29.6942 32.2746 29.8457 32.3124 29.9995 32.3124C30.1534 32.3124 30.3049 32.2746 30.4406 32.2022L30.8269 31.9959C33.978 30.3201 36.6132 27.8176 38.4495 24.7572C40.2859 21.6968 41.254 18.1941 41.25 14.625V8.46938ZM39.375 14.625C39.3785 17.8435 38.5083 21.0026 36.8573 23.7653C35.2062 26.528 32.8362 28.7908 30 30.3122C27.1638 28.7908 24.7938 26.528 23.1427 23.7653C21.4917 21.0026 20.6215 17.8435 20.625 14.625V9.58781C23.8268 10.0322 27.0882 9.50058 29.9831 8.0625L30 8.05313L30.0225 8.06531C32.9156 9.5028 36.1752 10.0338 39.375 9.58875V14.625Z" fill="#223D69"/>
<path d="M35.3035 13.0585L28.125 20.2369L25.1982 17.31C25.0214 17.1393 24.7845 17.0448 24.5387 17.0469C24.2929 17.0491 24.0578 17.1476 23.884 17.3215C23.7101 17.4953 23.6115 17.7304 23.6094 17.9762C23.6073 18.222 23.7018 18.4589 23.8725 18.6357L27.4622 22.2254C27.638 22.4011 27.8765 22.4998 28.125 22.4998C28.3736 22.4998 28.612 22.4011 28.7879 22.2254L36.6291 14.3841C36.7186 14.2976 36.7901 14.1942 36.8392 14.0798C36.8883 13.9654 36.9142 13.8424 36.9153 13.7179C36.9164 13.5934 36.8926 13.47 36.8455 13.3548C36.7984 13.2396 36.7287 13.1349 36.6407 13.0469C36.5527 12.9588 36.448 12.8892 36.3328 12.8421C36.2176 12.795 36.0941 12.7712 35.9697 12.7723C35.8452 12.7734 35.7222 12.7993 35.6078 12.8484C35.4934 12.8975 35.39 12.9689 35.3035 13.0585Z" fill="black"/>
</svg>
