<svg width="60" height="60" viewBox="0 0 60 60" fill="none" xmlns="http://www.w3.org/2000/svg">
<g clip-path="url(#clip0_203_62)">
<path d="M59.9408 42.8575C59.5993 39.3444 57.8005 36.1472 54.8757 33.8547C53.7477 32.9705 52.4666 32.2315 51.0539 31.643V15.8032C51.0539 15.4683 50.8753 15.1588 50.5852 14.9913L25.9957 0.794663C25.7057 0.627202 25.3482 0.627202 25.0582 0.794663L0.46875 14.9913C0.178594 15.1588 0 15.4683 0 15.8032V44.1967C0 44.5316 0.178594 44.8411 0.46875 45.0086L25.0582 59.2052C25.2032 59.2889 25.3651 59.3309 25.527 59.3309C25.6888 59.3309 25.8507 59.289 25.9957 59.2052L50.5852 45.0086C50.7779 44.8972 50.9198 44.7226 50.9945 44.5201C51.6341 45.3454 52.0771 46.2704 52.2862 47.2454C53.0595 50.8476 50.7298 54.3497 46.2064 56.3851C45.7721 56.5806 45.5534 57.0707 45.6978 57.5245C45.8236 57.9195 46.1896 58.1777 46.5905 58.1776C46.6504 58.1776 46.7109 58.1719 46.7716 58.1599C51.1114 57.3083 54.6634 55.2894 57.0434 52.3214C59.239 49.5838 60.2679 46.2227 59.9408 42.8575ZM25.527 28.9174L18.6727 24.9601L41.3871 11.8459L48.2414 15.8032L25.527 28.9174ZM11.5417 20.8431L34.2561 7.72888L39.5121 10.7635L16.7977 23.8777L11.5417 20.8431ZM15.8603 25.5014L15.8602 34.5171L10.6043 31.4827L10.6042 22.4669L15.8603 25.5014ZM25.527 2.68912L32.3811 6.64642L9.66668 19.7605L2.8125 15.8032L25.527 2.68912ZM1.875 17.4271L8.72918 21.3844L8.7293 32.024C8.7293 32.3589 8.90789 32.6684 9.19805 32.8358L16.3289 36.9527C16.4739 37.0364 16.6358 37.0784 16.7977 37.0784C16.9595 37.0784 17.1214 37.0365 17.2664 36.9527C17.5566 36.7853 17.7352 36.4758 17.7352 36.1409L17.7353 26.584L24.5895 30.5413V56.7697L1.875 43.6555V17.4271ZM26.4645 56.7696V30.5413L49.1789 17.4271V30.9736C47.229 30.3854 45.0769 30.049 42.7649 29.9777V26.9458C42.7649 26.5817 42.5541 26.2504 42.2242 26.0964C41.8942 25.9423 41.5048 25.9931 41.2256 26.2268L30.3871 35.2983C30.1662 35.4832 30.0427 35.7593 30.0518 36.0472C30.0611 36.3352 30.202 36.6028 30.4343 36.7731L41.2729 44.7249C41.5579 44.9339 41.936 44.965 42.2511 44.8052C42.5662 44.6456 42.765 44.3223 42.765 43.969V40.8171C45.2476 40.9505 47.4285 41.6183 49.1161 42.7688C49.1375 42.7834 49.1578 42.7989 49.179 42.8136V43.6555L26.4645 56.7696ZM52.3753 54.014C52.607 53.7114 52.8189 53.4005 53.0108 53.0815C54.1902 51.1213 54.5736 48.9672 54.1196 46.852C53.6427 44.6298 52.2408 42.6294 50.1721 41.2193C47.9625 39.7132 45.0769 38.917 41.8274 38.917C41.3096 38.917 40.8899 39.3368 40.8899 39.8545V42.1183L32.5075 35.9684L40.8899 28.9527V30.9007C40.8899 31.4185 41.3096 31.8382 41.8274 31.8382C53.0162 31.8382 57.5725 37.8717 58.0747 43.0385C58.4426 46.825 56.7182 51.2363 52.3753 54.014Z" fill="#223D69"/>
</g>
<defs>
<clipPath id="clip0_203_62">
<rect width="60" height="60" fill="white"/>
</clipPath>
</defs>
</svg>
